/* XPM */
static char *result[] = {
/* columns rows colors chars-per-pixel */
"64 64 181 2 ",
"   c #3E1C14",
".  c #3E1F18",
"X  c #4A1A0E",
"o  c #421E15",
"O  c #4C1E12",
"+  c #541E12",
"@  c #5A1E12",
"#  c #611D0B",
"$  c #691F0B",
"%  c #4D2216",
"&  c #43221A",
"*  c #49241B",
"=  c #542117",
"-  c #5C2216",
";  c #55241A",
":  c #5C251A",
">  c #56281E",
",  c #5D291E",
"<  c #63220F",
"1  c #6A210E",
"2  c #642414",
"3  c #6B2512",
"4  c #6D2816",
"5  c #62261A",
"6  c #63291D",
"7  c #6D2B1A",
"8  c #722611",
"9  c #702916",
"0  c #722C1A",
"q  c #6A301E",
"w  c #542B21",
"e  c #5B2C21",
"r  c #5C3226",
"t  c #553429",
"y  c #5C352A",
"u  c #5D382D",
"i  c #5D3C33",
"p  c #622D22",
"a  c #692F21",
"s  c #673426",
"d  c #6A3426",
"f  c #63372A",
"g  c #6A3629",
"h  c #62392E",
"j  c #6B3A2D",
"k  c #713423",
"l  c #773827",
"z  c #793728",
"x  c #743C2D",
"c  c #7B3E2D",
"v  c #643C31",
"b  c #6A3E32",
"n  c #723E31",
"m  c #7A3E30",
"M  c #634137",
"N  c #6D4134",
"B  c #754234",
"V  c #7C4334",
"C  c #754639",
"Z  c #7B4739",
"A  c #744B3D",
"S  c #7C493B",
"D  c #6E4D43",
"F  c #754D41",
"G  c #794E41",
"H  c #735145",
"J  c #7B5144",
"K  c #7B5448",
"L  c #873C27",
"P  c #813E2C",
"I  c #84402E",
"U  c #8A422E",
"Y  c #824534",
"T  c #894635",
"R  c #824837",
"E  c #894836",
"W  c #814738",
"Q  c #84493A",
"!  c #8A4C3C",
"~  c #954732",
"^  c #924E3D",
"/  c #9C4F3C",
"(  c #8E503E",
")  c #91503E",
"_  c #9A523E",
"`  c #844F40",
"'  c #884F40",
"]  c #845143",
"[  c #8D5546",
"{  c #825749",
"}  c #8D5649",
"|  c #845B4E",
" . c #8E5A4A",
".. c #935544",
"X. c #9B5543",
"o. c #935847",
"O. c #9B5946",
"+. c #915748",
"@. c #955B4B",
"#. c #9C5D4C",
"$. c #8C5E50",
"%. c #935F50",
"&. c #A25543",
"*. c #A35945",
"=. c #AA5A46",
"-. c #A25E4C",
";. c #AA5E4A",
":. c #96604F",
">. c #9C604F",
",. c #8C6153",
"<. c #956253",
"1. c #9B6454",
"2. c #9E6857",
"3. c #9C6758",
"4. c #966859",
"5. c #9D6A5A",
"6. c #A3614E",
"7. c #AA614F",
"8. c #A36452",
"9. c #AB6653",
"0. c #A16957",
"q. c #AD6856",
"w. c #A36C5B",
"e. c #AD6B5A",
"r. c #B16754",
"t. c #B26A56",
"y. c #B26C5A",
"u. c #A6705F",
"i. c #B4705F",
"p. c #B9725E",
"a. c #8F766E",
"s. c #92766E",
"d. c #98796F",
"f. c #8F7771",
"g. c #8E7973",
"h. c #947B74",
"j. c #997E76",
"k. c #957F79",
"l. c #9A7F78",
"z. c #A67363",
"x. c #AB7463",
"c. c #AD7867",
"v. c #AE7A6A",
"b. c #B37563",
"n. c #B97561",
"m. c #B57966",
"M. c #B47C6B",
"N. c #BC7D6B",
"B. c #A07F76",
"V. c #9C8077",
"C. c #97817A",
"Z. c #9C827A",
"A. c #BC816E",
"S. c #A1857D",
"D. c #A5887F",
"F. c #B58170",
"G. c #BC8472",
"H. c #C2806E",
"J. c #C18371",
"K. c #C38977",
"L. c #9E8780",
"P. c #9E8A84",
"I. c #A18780",
"U. c #A48B84",
"Y. c #A98E86",
"T. c #A58F88",
"R. c #AB8E88",
"E. c #AB9087",
"W. c #A5928B",
"Q. c #AB938B",
"!. c #B1968E",
"~. c #AD9791",
"^. c #AE9891",
"/. c #B09791",
"(. c #B29B94",
"). c #B99E97",
"_. c #B29F98",
"`. c #B89F98",
"'. c #B7A19A",
"]. c #B9A39C",
"[. c #B7A6A0",
/* pixels */
"X.) X.*..._ [ h.#.=.) ^ ^ ^ X.! ! ) X.;.X._ +.E.>._ ) ) ! ! ) X.X.) X.*.) ) ..h.#.=.) ) ^ ..X.! ! ( X.;.&._ +.E.>._ ) ^ ! ! ) &.",
"Z R Q Q W V j k.q.E W W S Z S E W W R R Z V S T.q.E Y Z W W ! R R R R W Q V j k.q.E W W V Z S Q E S R W Z V S E.q.E Z W R Z ! Q ",
"V Q W Z W x C Q.y.Y V Z S S E E Q Z W V V x h Y.y.T Z V Z Z V C Z Q S W R x C Q.y.E V Z W S W Q S Q Z V C x v Y.y.E Z W R Z V C ",
"S E R W E V b ^.y.E B Q E ! Q Q E E R Z V V S E.t.Y R R Q Z V V R E W W E V N Q.y.Y V Y E E E Q W E E Z V V Z E.t.Y V R W Z V V ",
"W W E E Q W S Q.y.Y B Z Q E S Z Z R R W R W Q E.e.Y Y R W ! ! E W W Q E E Y S !.y.Y B Z E R W Z W E R R R W Q E.t.Y Q R W ! R E ",
"Y V V W V x Z !.t.P m V W Y m Y V V Y V V x u U.t.P V Z Y W V V V V V Y B c V !.y.I x W Y W c W V B V V Y x u U.t.c V Y Y Y V V ",
"f Q ! v y e v ^.y.f y C j S b B Z u C Q V y u ~.i.g y h Q j Z h f Q ] b y y M (.y.j y C N S v B S v Z ! S y i (.n.j u b ] N S j ",
"k.Z.Z.C.h.h.W.].D.h.h.V.k.V.h.l.V.k.V.V.V.k.Q.'.S.h.h.h.l.h.I.Z.C.Z.V.k.h.h.W.'.S.h.h.l.l.V.h.V.l.h.l.l.j.d.W.).S.h.a.h.l.h.Z.Z.",
"b.m.z.A.A.G.A.F.G.G.M.M.J.b.M.(.F.b.M.c.G.G.K.M.z.F.M.M.x.b.M./.w.7.@.9.8.9.8.#.7.8.#.#.q.-.9.^.-.P P m T P T c d c m m m P ! /.",
"8.#.>.0.2.0.2.w.e.w.0.2.1.#.:.Q.N.#.>.1.w.e.0.2.0.w.1.1.1.@.J U.#.P Y Y Y W I Y R T Y Y Y c S Y.&.5 5 5 a 2 @ + @ @ @ + 5 @ O P.",
"e.1.1.1.2.5.5.u.w.w.5.3.1. .J T.A.@.<.4.2.5.5.w.u.w.3.1.2.[ H U.6.Y W Y S W S Q R R Z W Z x v U.&.5 > : @ @ ; @ - : ; : 6 ;   P.",
"y.1.:.2.w.w.w.u.u.w.w.5.2.:.$.Q.N.#.:.1.w.w.u.u.u.w.w.0.2.:.:.Q.8.E S E E Q E E ! R W W Q V Z W.X.6 , @ p e 5 @ - 5 : 6 p - e W.",
"8.1.:.3.w.w.2.u.w.w.w.5.1.>.<.!.N.>.1.2.w.w.u.w.w.w.w.0.<.@.<.E.@.Y Z E ! E Z E E W W E S V Q Q.X.5 p 7 p 5 5 e ; : 5 5 : @ p T.",
"9.@. .:.2.3.1.1.1.2.<.1.:.+.A Q.A.o.:.>.:.3.5.w.2.1.1.:.>.[ H U.-.c x V W V m B V Y m B V x h E.&.- : : + + @ @ + + + = 5 @ o P.",
"n.<.<.K K 5.u.| 4.5.| K 4.J H '.J.] K ,.| 5.,.<.4.| <.<.{  .K Q.y.R Q v y Q ] j B S v j S f i Q.-.+ & > o e o + w o : e * : * T.",
"D.Z.Z.V.V.Z.Z.C.V.Z.l.l.V.h.T.^.S.h.k.V.C.Z.V.L.Z.V.Z.Z.h.V.T.(.S.j.V.l.h.V.V.k.k.j.l.h.j.h.U./.S.f.f.h.g.h.g.h.h.f.h.h.g.f.I._.",
"@.+.#.9.6.O.<./.O.~ T U P U U L L P ~ ~ / P R Q.e.O.@.-.#.@.-.O.#.@.#.9.7.#.<._.u.7.#.#.@.-.8.@.@.#.9.9.y.@.%.(.b.-.#.9.1.#.8.#.",
"V T Y Z R I Q !.&.8 1 1 8 8 1 $ 1 $ 1 3 9 1 7 Y.t.I Y Y E Y V V Y Y Y W E Y W Q.r.P m m T ! P P P W P m P c W R.r.P Y T T W Y m ",
"R E S V W B v W.;.9 4 3 9 2 < 3 3 3 3 4 2 2 = I.y.E B W E Q B V W E Q Z W x h Q.i.P V W Q Z Z Q P ` ` ` Z n f U.y.Y B W Q Q V B ",
"E R ! E W c v W.=.3 7 0 9 < < 3 8 3 9 7 4 2 a U.y.T Z W Q Q W Z E S Q E W c v Q.y.Y W ' Q V W Q ' P ' W m m F Y.y.T V Q Q E W W ",
"Z ! E ! E V Z !.=.3 7 4 9 9 1 < 3 1 9 0 7 4 l Y.y.Y W ! Q E Q E S E ! Q Q V Z !.e.Y W V Q Q T S ` P ' Q W m ' R.q.W Q E E Q E ! ",
"B V V V V x h E.=.3 3 2 3 3 $ # < < 1 1 3 # % Z.y.c x Y V m B c m V V Z m x h R.y.P V V W T m m G m W m P x f U.t.c x W V B V B ",
"f h h h h y M Q.=.9 0 6 X 2 7 3 3 7 - 5 q X * Q.b.g y v v v h y h b h h v y v ^.i.T ' G v S ' W Q ` n m G r u Q.y.f r u y h y y ",
"h.h.h.k.a.a.T.^.B.s.l.j.a.h.j.k.d.j.d.j.h.f.U.(.S.h.k.k.f.h.j.k.h.f.h.h.a.f.U./.B.s.j.j.s.l.l.l.l.B.l.l.j.h.T._.I.h.C.C.h.h.h.k.",
"6.O.>.q.8.8.1.*.[ @.@.8.9.8.0.~.w.O.1.8.@.1.8.O.+.9.8.9.8.-.0.).@.c W / Y P V P d x x P T T ' R.v.w.m.M.x.M.F.M.x.J.G.N.M.b.b.[.",
"=.R V Y Y Y T Y W Y Y Y E c j I.q.I Y W Y Y Y Y Y Y Y Y Y P ! /./ 3 - 5 @ 2 @ @ @ + @ 2 6 @ o L.N.O.#.<.0.0.0.w.0.0.0.1.0.O.#.).",
"7.! B W Q W Q E Q Z W E E n y S.y.I B V Q S W W Q S V V S V ' !.X.a : : p ; 5 @ - = ; 5 p @ o L.J.#.%.<.0.5.5.w.w.5.5.4.2.:.<.).",
";.E V W Q S Q Q E E W W W V Z Y.q.Y W R E E W W Q Q E E E V Q !.X.7 : p - @ p : 5 : - : 6 @ r U.J.@.<.5.0.w.w.w.z.w.w.w.5.@.:.(.",
";.R Z Y E Q E E Q Q E Q W B S R.e.Y B E S Z W W Q E E E Q V b W.&.p p p p @ e 5 - : : , 6 : p T.A.#.<.0.3.5.5.w.u.w.w.w.0.#.G ^.",
"=.Y V Y Y V B V V B Y B m x h U.t.c V V V c V V W V Y V V c h W.&.4 @ 5 2 + + + + + - + = + o U.H.@.@.<.<.1.2.0.0.0.0.3.<.@.A ~.",
"7.N y Z Q Z j B S S j y h r i Q.y.s y Q Q j C W S b S W v r M ^.-.+ o e p w   O : ; .   o   & W.J.G F 1.5.| 4.5.4.,.5.4.{ F F _.",
"S.h.h.l.k.k.h.C.l.V.h.k.h.h.T.(.D.k.k.V.V.k.k.l.l.h.j.j.h.f.Q.'.S.f.f.h.s.g.g.k.k.l.g.g.f.h.Y.(.U.V.k.S.L.V.Z.I.Z.Z.V.Z.h.k.W.].",
"#.O.6.8.@.#.:.Z.v.N.b.c.v.M.G.c.z.c.A.A.m.x.z.^.5.*.@.O.@.@.8.#.#.#.8.9.@.6.%.U.F.N.M.M.M.M.G.c.z.c.M.N.c.i.z.Q.1.O.+.+.+.+.#.#.",
"V Y Y Y Y c f l.N.6.1.1.2.2.2.w.0.2.1.1.#.@.@.Q.9.T V m Y c Y V m W Y Y P m f k.N.-.>.1.1.2.2.0.2.1.0.1.:.@. .Q.9.T V P I V W I ",
"V Q W W W x C W.J.1.<.4.2.0.w.w.w.5.3.<.<.} F W.y.Y W Y W V V C V W W W W x B ~.J.>.<.1.5.w.w.z.w.5.2.<.<. .J Y.t.T Z W R Z V V ",
"S Q R W E V b !.J.8.<.5.u.w.z.w.w.u.w.<.<.@.@.Q.q.Y Z Y W Z V Z W ' W W E m b ~.J.1.<.1.0.w.z.w.w.w.w.1.<.@.@.Q.q.Y Z R W Z V V ",
"W W Y E E Y Z Q.J.>.:.1.w.w.w.5.5.w.w.1.1.#.<.W.q.Y W E W E ! E Q W E T ! E Z /.J.#.<.2.w.w.5.5.5.u.w.1.1.<.<.W.r.Y W R Z ! E E ",
"Y V V W B c V !.H.>. .1.0.w.3.5.1.<.1.:.@.[ F Y.r.P V Y W Y B V V V B W m x B !.A.#. .1.0.0.2.2.2.<.1.1.>.+.F Y.t.c Y W Y Y V B ",
"v Q ! v u y M (.G.] K ,.| 5.| 4.5.| <.4.<.F D ^.y.g y v Q b S j h Q ' v y y b _.J.` K ,.| 5.$.4.5.| 4.5.<.F H (.y.j y M ! N S j ",
"k.S.V.k.h.h.W.'.D.h.C.Z.V.Z.l.Z.Z.Z.Z.Z.V.l.Q.].S.h.g.h.k.h.I.Z.C.Z.Z.k.h.h.T.`.U.k.k.Z.Z.S.l.Z.Z.C.V.Z.V.h.Q.'.S.h.f.h.k.h.Z.L.",
"8.9.@.9.8.9.6.#.8.-.@.#.9.O.8.Q.w.O.-...8.7.9.#.+.#.#.#.@.#.3./.w.7.@.9.7.8.8.O.7.6.o.#.9.O.8.Q.4.( [ ] [ [ O.] S ] [ [ ] [ @.^.",
"^ W W Y Y Y I Y E Y Y Y Y P W W.t.I V Y ! T I V Z E Y V Y c j I.-.I Y W Y W Y Y E Y E Y Y c S R.#.k g j B x g s g x g g x s r U.",
"X.E S Q R S W E Q Q Z Z Z x h U.t.V V V W S W R Q Q Z Z R c y Y.8.Y W W S W Q E Q E Z Y Z x h U.6.g j j g j j j N j j j B g w P.",
"*.E Z E E Q Q E E E Y S W V Z R.y.Y V Z E S E E Q E E E Y V Z W.9.T W R E W Q E E R W W Q V Z W.>.x j g B N j B x B B B B g b Q.",
"( E Z W ! E S E Y E Q E W V Q !.t.Y R E Q E E Q R R R E Z V Q Y.@.Y Z E ! Q Z R Q S S E S Y Q Q.1.x N B B x B x j B x B b g B T.",
"X.Y x V Z V V B V V B m V x f W.t.c V V B V W W V V V V Y x u I.9.c x V Y Z V B V V c V m x f W.7.g j g f f g j f f f g x s > U.",
"7.Q Q v u ! ! h C S j h S f i Q.i.j y C h S b B Z h Z Z b B M W.y.R Q h y ! ! f C S v h S f u Q.0.r t h y N u f N t N N u h u W.",
"S.V.j.k.h.j.l.k.k.l.h.h.j.h.Y./.S.h.h.l.l.l.h.l.l.h.k.V.s.h.Y./.S.l.V.l.h.V.C.C.j.j.l.h.l.h.U.(.S.d.g.j.h.h.g.C.C.d.h.V.h.h.T.^.",
"@.@.#.q.7.#.<.(.w.;.#.#.@.-.8.O.@.@.7.6.9.+.<.^.u.#.#.7.>.#.6.#.@.O.#.q.9.#.<.(.u.7.%.#.@.6.8.@.o.#.6.8.q...%./.i.#.#.6.>.#.8.#.",
"Y Y Y Y E Y Z !.r.Y m V Y E Y V Y Y Y Y Y c V R.r.P Y Y R R V c Y Y W V T Y W !.r.P m m T T Y P Y Y Y Y Y c Z R.r.I Y E E Y V c ",
"Q E R Z Z c v Q.y.I Z W E V V Q Q S W Q V x h U.y.T V W Q Q V V W E Q Z Z c h Q.p.P V W W S Z W E Z R R V x h U.t.Y V R Q Q V V ",
"Q S E E Q x v Q.y.Y W E Q Z W W Q E Q E Z c C Y.t.E B Q E R Z S Q Q E E Z c v Q.y.Y W ! Q V W Q E Q ! E Z B Z Y.t.E Z R Q E R Z ",
"S E R E ! V Z Q.e.Y W W Q E Q S Q Q R R W B ` R.q.Y Q ! E Q E Q S E E Q E V Z !.y.m W W Q Q W V Q Q R E Q V ! W.q.Y R ! E Q E Q ",
"m Z V V V l j W.t.P V V W Y Y m V V V Y V l h U.t.c x W V B V V m V V S B l h W.y.P V V Y T Y m B V Y V V x f U.t.c x W V B B V ",
"h y h f y r i W.y.Y Q S h C Q V E ` C V S f i Q.i.g y h h y h y h v h h h y i Q.y.W ' Z v Z Q S ! ! C S Q f i ^.n.j u v v v h y ",
"h.h.k.k.h.f.U.(.j.d.l.l.h.l.Z.Z.j.j.k.l.k.h.T.).S.h.k.C.h.h.h.h.h.h.h.h.f.f.T.(.B.d.j.l.h.l.l.l.k.l.h.k.h.a.T.(.V.h.h.h.h.s.h.k.",
"b.z.M.J.A.G.F.M.x.c.c.M.M.n.M.~.3.O.#.6.+.%.1.X.[ 9.8.9.8.#.9.'.w...-.q.8.8.1.*.' @.+.6.8.8.8.Q.+.m T T x m P z g T T T T Y ! ).",
"i.8.@.2.w.w.w.e.w.0.5.9.0.@.J I.9.P Y Y Y E Y Y Y Y Y Y T c ! !.r.I m Y Y E Y Y Y Y Y E T c j I.X.2 : 5 @ 2 @ @ @ + @ @ 5 @ 7 /.",
"n.0.%.1.0.0.u.w.w.3.0.5.2. .F I.r.Y B B T W W Q W Z S Z W V ] !.y.E B W W S E W Q S W E W x i S.&.5 @ ; p @ ; ; + ; @ + 5 5 a /.",
"p.1.<.5.5.w.w.z.z.w.0.5.2.@.,.R.q.Y W E Q Q W E E E E E Y V Q !.e.E B W W Q E ! Q Q W W T V S U.X.p p 6 p : - - ; 5 5 p 6 @ p ~.",
"n.<.<.0.0.5.w.w.w.0.0.0.<.@.<.Q.q.Y V W Z Z S W Q R E E ! V h Q.y.Y Z Q E W E ! Q W W Q Q m G R.X.7 5 p ; ; - ; : : 5 5 a : * W.",
"p.>.@.0.0.1.1.5.2.2.2.<.@.[ F R.r.c V V V m m Y Z Y W V V x y Q.t.Y V T W V m V Z V Y m m x f U.&.@ : @ + + + @ @ @ - ; @ @ o W.",
"p.J A <.5.4.{ <.3.1.{ J G C F W.e.s r Q E f B W B j V V h e u !.y.d y B Q B f n W V h y f e u R.*.+ o p p o = : ; o = : o   o Q.",
"S.C.k.Z.C.C.C.Z.L.L.C.C.C.k.W.`.U.k.g.Z.V.h.C.Z.Z.C.V.V.g.h.~.].S.h.g.k.h.k.k.Z.l.k.k.k.h.k.W._.L.g.f.l.k.g.h.h.l.h.h.k.f.g.T.[."
};
