/* XPM */
static char *result[] = {
/* columns rows colors chars-per-pixel */
"64 64 58 1 ",
"  c #4D321E",
". c #52341F",
"X c #4F3521",
"o c #523723",
"O c #553A25",
"+ c #593C27",
"@ c #543B29",
"# c #5B3E29",
"$ c #5E412A",
"% c #60422C",
"& c #6E4E34",
"* c #734E31",
"= c #735236",
"- c #795335",
"; c #775439",
": c #7A563A",
"> c #7C593C",
", c #745843",
"< c #7C5B40",
"1 c #6F6A66",
"2 c #666C6F",
"3 c #6C6C6A",
"4 c #706B66",
"5 c #706F6D",
"6 c #696E70",
"7 c #6C7072",
"8 c #936745",
"9 c #936947",
"0 c #996B46",
"q c #966B49",
"w c #996E4B",
"e c #9D714D",
"r c #9B7150",
"t c #A17450",
"y c #AF7E57",
"u c #B17F58",
"i c #B5825B",
"p c #BA865D",
"a c #BC885F",
"s c #86837E",
"d c #89847E",
"f c #B78661",
"g c #BA8761",
"h c #BE8960",
"j c #C0875C",
"k c #C38A5E",
"l c #C38C62",
"z c #C89166",
"x c #868584",
"c c #8A8682",
"v c #878887",
"b c #888887",
"n c #80878B",
"m c #86898B",
"M c #898B8B",
"N c #878D90",
"B c #898E91",
"V c #8B9091",
/* pixels */
"piaiw9qwqqw9::::::=:ihaiwqqqw9wq::::;::;$OO$=;;:::=>iahp>;=>iaaa",
"ppppwqwqqwwq::::::=:ihaiw9qwwwwq:;;::::;$OO$;>>;:;=>iahi>=;>iaai",
"halpw9wqwrew:;::::=>azlaeweewerw:;:::>>:O..O;>;:==&;ilki>;;>azal",
"iipiwqqq9qq9:;:;:-;>ipiiq99q9qqq::::;;:;$$$$;>::>>:<iaai:==:iiii",
">>:>qweq$O#$::::;:>;$$$$#####$##;>>;%+O#9qqq:;=>ippiw0eq$O$$$$$$",
"===;qwwq+ooO;::::;>;OXXoOOoOO@O+;>>;+Oo#weee:;;>pllpq9e9$XoO.XXO",
"===;wwtq+oO+:>::;;;=oOOOOOO@OOO@=;-=#OO#qeeq::=>allp0qw9O ..OOOO",
">>:>qqw9#O##;:;:>>>;$+$###$###@#:><;#+O#qeqq:;=>ippiqqeq$$$$$$$$",
"piii>;>:;;>-$+o%yapiq99qqqqq:==:ipai$o++;>>>:::;%#+%dMbdiiii;=;:",
"hhlp:=;;>><;+o.$plaaeweeeeee>:;>plzi#oO#;;;;::>;Oo @xVmbhaza>;::",
"palp>=;-==;=OOX$pzlaw9qqqqeq;=&:ahki#XOO;>;>>:>:+O.$xmnbfaha:=::",
"pihi:=::>>>>$+O$iaiiwqqwqqqq>::>iaai%O#$;>>;;;:=#+O$dMbdiaai>=::",
"wwwq4334ipai:=;;%$+%9eqq::;:ipiieqwwq9q9>;:-$+$$=:=:ihhiwqeq:;::",
"9qqq3723fllh>;>:O  O9eeq:;=:plkaq99qweew>;>;OOo+:<:>ijppq9q9>;::",
"qqqq3225fkli:&:=$OO$9ewq:;=:plkaqqqwwwew;;>;O XO;>=>plhgrwee:;::",
"qqwq1334ipai>:>:+oO$9eeq:;;>ippiqqqqqqqq>->;%$$$;:=>iapiq9q9:;::",
"wqwq::;<qwqwuphu#oO#qewq>;:::>:>qeeq$O$%;:;:ugpu>=::qweq%O#%;:::",
"wqwq>--;9q9whllp$oO#qwwq:;::;==;qqe9O OO;:;:hzla>=::9qwqOooO-:::",
"q9q9::::qwqwphlp#oo+qewq>::::>:>qete$Xo+;:*<glza:==>wweq+oO+=:=;",
"wwww:;;:qwqwuphu%OO#9wwq:;;;;;=:qqq9$O+$::;>ugpu<=::qww8$O+#:>::",
"pplu%oO$qwwqwwwq;;;:qwwq$O$$#$##$$$$;:;;:;:;%##%;:;>;>>>;;=>iaii",
"pjlu#oo#qeqqqqqq>::>qwe9OOOO+o+OO..O:>>>:>>;oooo;>>;;;;;:>;>alaa",
"pplu#oo+qewqwwwq>--;qeeq+.OOO ooXXXO-:;>;=;=oooo;>;>;;;;::=:plaa",
"iplu$oO$9wqqqqwq:;;:qqwq$O$$$$$#$$$$;>>;>>>>%##%;>>;>>>;::;:iaii",
"pihi:;;;::::::::4334:;::::=:ipiiiiai:==>upiiiiau>=;>qwqq:;;>qwww",
"ppli>::::;;::;-;3773;-:;::;<alallaza:==>plhhalla:=;>qewq>;;>8qqq",
"lllp:=:;=;;;*=-;3773:-;=::=8plalaali>;;>plppalla>=;>q0q0;;=>qwqq",
"uugu:;::::::>>>:4334:->>:=&=iaiiiiai>==:ihipiipu>=;;qwwq>;;>qwqq",
":::>::;:ihupiiiurqwqqqwq#++#:>:>qeeq$OO$qrwq>:>>:;->dbbcq0qqqqqw",
"=;;=;:;:plhpallaw9qqwweq#oO+=;=;qqq9$XX$9wwq;===>;-<bNmbw0wwwqqq",
";:;:::;<glllppaawqwwqqwq#OO#:>:>qeeq$X $qeww:;::;;*:xNmbrwwwwwww",
"::::::*:upuppppuw9qqwqrq#OO#;:;;qqe9$OO$qwwq:;::::-<dMbcq8qqqqqq",
"qqqq:;:::<=8qwww:;:>qww9#O###@+#::::qqqq>;>>;>;>qwqqqqrq#++#>>>>",
"wwww>;:;==&=9wq9:;;:qwr9#O+#++O+;:;:qeeq;=;;>;;>qwww0qw0Ooo+=;;;",
"wwww;=;;:::>wwww::;:wetw#O+@++O+;:;:qqeq>;;>>>;>qqqq9qw9#oO#-;;;",
"qqwq>:::;;=:qqw9:;;:9qw9#O#@####;>;:qeqq:->;;;;;qwwqwweq#O+#;>>>",
";>;>qqw9#O##:::::::;####@#+#;>;;::;:qqeq;;>;#@O%ulipippi:==:qwqq",
";;=;wwtq#oO#;::;:::;+oOO#@+#:>>>::;>qwqq>;>;#OX#ilaaaplp>;:>qwww",
">:;>qwwq+oO+*:;;::>:+oO@oooO;;;;>>:>9qq9-=;=#+o$ilahpali>*=-wwww",
";:;:wwwq#O+#>>>>:::;%@##%##%:>::;;=>qeeq>><;#Oo$ukiiippi<;::qqqq",
">;::qwwq;;=&yuuu:;::9q8quiiuq9wq$OO$iaiiiiai$X@#qewwwwqwdxvs:->>",
";>::qwwq:<;8gzll:*=:wrwealllwqeq$.X$ilaahhlp$@O#9wqq9q8qbNVx,=;-",
";;*:wwwq:;&8ullg8==:qwqwhllhw9wq$. $ilaaalzp$oO#qwqqqq0qbNVv>-:>",
">>::9wqq:=&:ulgu==;<qwqwuppiwqeq$@@$iaiiiipu$XO#qewqqw0qxxvs:=;;",
"qqwq>:::::;:wwwq:;;<qwwq<:::qwwq1331qeeq%+$$O$O#9eqwqweq>:>:$+$+",
"wwww;=;:::;:9qw9:;;:qqwq;*;=qwwq3675q0e8O .O@+O$qwqqqqqq-=:=+O+O",
"eeew>::>::;:qwwq:;::wwwq;==;qwww3663qeeq#oOOOOX#wrwweweq;=:=o OO",
"q9qq:=;;::;:qwwq:;=:qqwq<::>9wwq4331qqe9$O+$$$O$qwqqqqqq>:>:%+$$",
"########::;>qwwq>=;>;>;>ippu:;::;:<:::::;:;:9qq9;>>>::=<ipiiuuup",
"OOOOOO@O::;:qwwq>=>;;;*>alla:=;;;;--:;:;:::>wrtw;=;;::=:alahllhl",
"#@OOOOoO;>;:qewq>-;>>;=>pllp>*;;:;::::::>>:>wtrw>;;>==*;plpaaaap",
"#####$#$;:;>qwqq>;>;;>=:uapi>;>;::::;:;;;;=;9qqq>;;;:>;>uhipiipi",
";;=:9qqq:;:-::::,,,,;>->qwwwqqqq:;>;#+##########;>=>ipiiwwwwqqww",
":::<wrew:;::;;;;,,,,;;;>qq9qwweq:;>;+O+O+++OOOo@->=>allaq899qq9q",
"::=:wwwq:;::=;;;,,,,>>;>qewwwwew;=;=+O++@@OOOOo+;>=:pllawqqwqwwq",
"::::qwwq>;:::>>:,,,,;-=>qqqqq9w9>><:#++#%#####+%;>=>ipiiqqqwqqwq",
"qqqq:;:>::=:ippi>=>;#++#:>>;$+O%uapi;=;;;;;:9wq9:;:::<&8qwqqwqwq",
"wweq:;;;::;:allp>=>-+OO+;::;OoX#izlp>;>>::::wrew:;;:==&;qwwqqqwq",
"qqwq:;:>=;&:ilhi>=;=+OO#=--=+Oo#illp;=;;::;:qweq--*-;;;;qwwwrrrr",
"wqwq:;:::>:>iahi>;>;#++#:><;$+O%ijai>;>;::;:9wwq<<<<::;<qqqqq8q8",
"qqwq>;;>ipiieqwwqqwq>==,svvx:=;;wwwwwqqq::::::-<rnnnqqqq:::;$###",
"qwwq:;=:pllaq99qwwww>>-<vVBv<-:>9qqqwweq:;:::;*:NBNmw0ww:;:;OoOO",
"qqwq>;=>ihhiw9qqqqwq>--:bmmx:-;>qwqqwqwq:;=:::*<xMmxw8wq:;:;#O##",
"wqwq:;=:ihhiwqqwqqwq>=-:xNMx:-;;qwwqqqwq::::::-<dMmxw0wq:;<;#+++"
};
