/* XPM */
static char *result[] = {
/* columns rows colors chars-per-pixel */
"64 64 79 1 ",
"  c #4B4B4B",
". c #4C4C4C",
"X c gray30",
"o c gray31",
"O c #515151",
"+ c #535353",
"@ c gray33",
"# c #555555",
"$ c #565656",
"% c gray34",
"& c #585858",
"* c gray35",
"= c #5A5A5A",
"- c #5B5B5B",
"; c gray36",
": c gray37",
"> c #5F5F5F",
", c #626262",
"< c gray39",
"1 c #646464",
"2 c #656565",
"3 c gray40",
"4 c #676767",
"5 c #686868",
"6 c DimGray",
"7 c #6A6A6A",
"8 c gray42",
"9 c #6C6C6C",
"0 c #6D6D6D",
"q c gray43",
"w c #6F6F6F",
"e c gray44",
"r c #717171",
"t c #727272",
"y c gray45",
"u c #747474",
"i c gray46",
"p c #767676",
"a c #777777",
"s c gray47",
"d c #797979",
"f c gray48",
"g c #7B7B7B",
"h c #7C7C7C",
"j c gray49",
"k c #7E7E7E",
"l c gray50",
"z c #808080",
"x c #818181",
"c c gray51",
"v c #838383",
"b c #848484",
"n c gray52",
"m c #868686",
"M c gray53",
"N c #888888",
"B c #898989",
"V c gray54",
"C c #8B8B8B",
"Z c gray55",
"A c #8D8D8D",
"S c #8E8E8E",
"D c gray56",
"F c #909090",
"G c gray57",
"H c #929292",
"J c #939393",
"K c gray58",
"L c #959595",
"P c gray59",
"I c #979797",
"U c #989898",
"Y c gray60",
"T c #9A9A9A",
"R c #9B9B9B",
"E c gray61",
"W c #9D9D9D",
"Q c gray62",
"! c #9F9F9F",
/* pixels */
"zlytttttrtglFHPA#&DJlhrrssyytyzxlxprtttttefhZLHI< bTxjiwadutyrjc",
"zluyuuuuyukxSDGZeiGFzjpy78uiyulzlxatiuuuutjkVGDHa9VPcksu06tputhx",
"lzcbFHFGLLJFituidhGJFFLC%*jzzlyejxccSJGGKPHLheuidsAPFFHL<opvkxpr",
"zliaFJHFnnGFyetteyAGFFJSrucxxzyejcstVLGGBbAPd0tttwNJFFGLa0zvlcpr",
"vg$*yipr%-sgyyetGHyrzxzxMBHGzlllzv:Owaip;@tjuyt0VYf0kvzzMMDPbjll",
"xjeuutyeeu66uituJJreklkkjkFGzkzzlxyritttwt04tiueCRd8hzkjkhZPvhzz",
"jzIIlhlzZn*=jbGHzlxztrttttttrybnlgGWbdlzMA<OscZPbkxcietttttttwzm",
"klGFzlzzzgeilxHHkhxzytyyyyttyyusljZLvkzzlltekzAIcflcptyyyyttutis",
"lzGHHDurtuhjiyuuyupdDHFFGGGGRF%$fcAKFKfqytflayuiuyaiCKFFGGGGIR1@",
"kzSFHDuryyttyyttuy48FKGGGGHFNvt0dlCGDLfwyyytyytryu9<MIGGGGGHBBuw",
"ttrtlzllzluyttrtvh$=lczltriw+;ZFiwtejckllxattttejn>Oanlcieyu=OcJ",
"yyrtklzzxzuyuuyuxleilkljtryrwuidattegzlzzcatiuuykbyejzkzieytqeia",
"FFGDlkxxxztuGJHFlzZZxllxFHFGEK*+MIFJvhxxxcpqCPGKvhVSbkzjAJGFI!4+",
"GGHFlkzzzltuGJHFzjuukzkzFHGGHZr7MIGKvhzlzxpqCPGKbhayhzlhAKGGFJaw",
"llkkkkssttuuyyyypw$=ruttttrtjzmbllkkklfayryuuyyyii;+0ittyttegzbm",
"kkkkxk76yuuuttttuteiiyyyttrtklklljkkzcw3riuuytttyyeyiuyyyttehzkl",
"kzFHPZ$=HLytzxllcnIUFDGGGGGGDDFJvdAKJP<XnQf0jclkcxHRHDGGGGGGDSFF",
"kzDGJAwuJHytzxxziaSGFGGGGGGGFFFJvdZJFKa8ZTf0jczxstBJFGGGGGGFFFFF",
"zlutryjjiuttrtvj->zvlktrttruGHlklxptttflautrrekm<%dmlziettywVUvh",
"zlrrttttrtiityxj26kllktrttetFGjhlxieyyyttruiutjv7<fxjzietttqBPxf",
"vbklHGyrtiDHHDpq><eyDHFFGDlhklbccnzhZUfqueBKFLge,>weBLFFFJcfkkvv",
"dikxJHuttiFJJFuweuyuDHGGHFxlljpjhujlAUgeueVPGPgqetuwVKFGGKbjlkad",
"&;lvzzxzyyzxzzkxPIFSxzzzlxFHPC=,>+smzzzcaejczxljGTGFvkzzzjAJJP<*",
"7pxzjkxzyykljklxDFHGkhjjhlDGJAr75rlxkjlcarhlkjljZHGLxfjjjgZJFKs7",
"nMyettttttttyytuGJJGdpuuyyyyrynxxCsqttttttytyyueCIGPlupuuyuutecn",
"zkyyyyyyuuyyyyrySGGA75yuyyttrtlczzpryyyyuiuyyyywNJDJt1riyytttehc",
"kzDGFFGGGGHFckuyuuae$=eulzlxGHFJvdZHFFGGGGGKblatiyii;@0yhxljAKFF",
"kzFHGGGGGGHFckuyttyrrpiuzxlxGHFJvdAKGGGGGGGKblatyttteupyjcljAKFF",
"zzzzxzuudstttttylzjxIYJDxkuytylzzzzzzcatsdytttyrhxkgHRHHblatyrjx",
"lljjljye45tyyuyuzxlxDFHFxjytrtklklkjjzir73eyyuutkczkZHFKvkprtehz",
"yyuuuuar&:DKFAkhcckjzluyuuyuzxlxpruuuuip>@bUDGxfxbljlcayuuutjcll",
"yyyyyyiyraGJHGxlhhlzlktryyyuzxlxpryyyyuutrCPGKbkjgkzkzieyyutjcll",
"zlytttttuihlFHPA$*SHlhrrssyytyzxlxprttttuyhhZLHP1.vTxjiwadutyrkc",
"xzuyuuuuyuhzSDJA9rHHzjpy78uitylzzcatiuuuuthhVGFKu5CUvksu06tpurhx",
"lzcbFHFGLLJFituidhGJFFLC%*jzzlyejxccSJGGKPHLheuidsAPFFHL<opvkxpr",
"zliaFJHFnnGFyetteyAGFFJSrucxxzyejcstVLGGBbAPd0tttwNJFFGLa0zvlcpr",
"vg$*yipr%-sgyyetGHyrzxzxMBHGzlllzv:Owaip;@tjuyt0VYf0kvzzMMDPbjll",
"xjeuutyeeu66uituJJreklkkjkFGzkzzlxyritttwt04tiueCRd8hzkjkhZPvhzz",
"jzIIlhlzZn*=jbGHzlxztrttttttrybnlgGWbdlzMA<OscZPbkxcietttttttwzm",
"klGFzlzzzgeilxHHkhxzytyyyyttyyusljZLvkzzlltekzAIcflcptyyyyttutis",
"lzGHHDurtuhjiyuuyupdDHFFGGGGRF%$fcAKFKfqytflayuiuyaiCKFFGGGGIR1@",
"kzSFHDuryyttyyttuy48FKGGGGHFNvt0dlCGDLfwyyytyytryu9<MIGGGGGHBBuw",
"ttrtlzllzluyttrtvh$=lczltriw+;ZFiwtejckllxattttejn>Oanlcieyu=OcJ",
"yyrtklzzxzuyuuyuxleilkljtryrwuidattegzlzzcatiuuykbyejzkzieytqeia",
"FFGDlkxxxztuGJHFlzZZxllxFHFGEK*+MIFJvhxxxcpqCPGKvhVSbkzjAJGFI!4+",
"GGHFlkzzzltuGJHFzjuukzkzFHGGHZr7MIGKvhzlzxpqCPGKbhayhzlhAKGGFJaw",
"llkkkkssttuuyyyypw$=ruttttrtjzmbllkkklfayryuuyyyii;+0ittyttegzbm",
"kkkkxk76yuuuttttuteiiyyyttrtklklljkkzcw3riuuytttyyeyiuyyyttehzkl",
"kzFHPZ$=HLytzxllcnIUFDGGGGGGDDFJvdAKJP<XnQf0jclkcxHRHDGGGGGGDSFF",
"kzDGJAwuJHytzxxziaSGFGGGGGGGFFFJvdZJFKa8ZTf0jczxstBJFGGGGGGFFFFF",
"zlutryjjiuttrtvj->zvlktrttruGHlklxptttflautrrekm<%dmlziettywVUvh",
"zlrrttttrtiityxj26kllktrttetFGjhlxieyyyttruiutjv7<fxjzietttqBPxf",
"vbklHGyrtiDHHDpq><eyDHFFGDlhklbccnzhZUfqueBKFLge,>weBLFFFJcfkkvv",
"dikxJHuttiFJJFuweuyuDHGGHFxlljpjhujlAUgeueVPGPgqetuwVKFGGKbjlkad",
"&;lvzzxzyyzxzzkxPIFSxzzzlxFHPC=,>+smzzzcaejczxljGTGFvkzzzjAJJP<*",
"7pxzjkxzyykljklxDFHGkhjjhlDGJAr75rlxkjlcarhlkjljZHGLxfjjjgZJFKs7",
"nMyettttttttyytuGJJGdpuuyyyyrynxxCsqttttttytyyueCIGPlupuuyuutecn",
"zkyyyyyyuuyyyyrySGGA75yuyyttrtlczzpryyyyuiuyyyywNJDJt1riyytttehc",
"kzDGFFGGGGHFckuyuuae$=eulzlxGHFJvdZHFFGGGGGKblatiyii;@0yhxljAKFF",
"kzFHGGGGGGHFckuyttyrrpiuzxlxGHFJvdAKGGGGGGGKblatyttteupyjcljAKFF",
"zzzzxzuudstttttylzjxIYJDxkuytylzzzzzzcatsdytttyrhxkgHRHHblatyrjx",
"lljjljye45tyyuyuzxlzDFHFxjytrtklklkjjzir73eyyuutkczjZHFKvkprtehz",
"uuuuuuar%:AHFSzkllllzluyuuyulzlxatuuuuip>@vPDGchlllllxayuuutjxll",
"yyyyyyiyeaHJHGzllllllktryyyuzxlxpryyyyyuteZIGKbjllllkziwyyutkcll"
};
