/* XPM */
static char *result[] = {
/* columns rows colors chars-per-pixel */
"64 64 16 1 ",
"  c #645563",
". c #615B67",
"X c #5D616B",
"o c #5A676F",
"O c #566C72",
"+ c #4F7779",
"@ c #4B7C7D",
"# c #537276",
"$ c #3F8B87",
"% c #3B8F8A",
"& c #37948E",
"* c #2D9D94",
"= c #329891",
"- c #28A197",
"; c #448684",
": c #488180",
/* pixels */
"----------------------------------------------------------------",
"----------------------------------------------------------------",
"----------------------------------------------------------------",
"----------------------------------------------------------------",
"----------------------------------------------------------------",
"----------------------------------------------------------------",
"----------------------------------------------------------------",
"----------------------------------------------------------------",
"----------------------------------------------------------------",
"----------------------------------------------------------------",
"----------------------------------------------------------------",
"----------------------------------------------------------------",
"----------------------------------------------------------------",
"----------------------------------------------------------------",
"----------------------------------------------------------------",
"----------------------------------------------------------------",
"----------------------------------------------------------------",
"----------------------------------------------------------------",
"----------------------------:#    #:=---------------------------",
"-------------------------*@          O&-------------------------",
"------------------------$.            .*------------------------",
"-----------------------@               *------------------------",
"----------------------:    .:%---*:@  +-------------------------",
"---------------------%    :-------------------------------------",
"---------------------O   :--------------------------------------",
"---------------------    ---------------------------------------",
"--------------------=    &--------------------------------------",
"---------------------     +:&-----------------------------------",
"---------------------+           O:*----------------------------",
"---------------------=X             +*--------------------------",
"----------------------=O             X=-------------------------",
"------------------------&:o           X*------------------------",
"-------------------------------::      @------------------------",
"----------------------------------;.   .*-----------------------",
"-----------------------------------=.   $-----------------------",
"------------------------------------:   :-----------------------",
"------------------------------------%   :-----------------------",
"------------------------------------$   ;-----------------------",
"------------------=o :--------------O   &-----------------------",
"------------------:   $------------:   X------------------------",
"------------------:   .&---------=#    ;------------------------",
"------------------&     @$----=:#     #-------------------------",
"-------------------#                 O*-------------------------",
"--------------------#               @---------------------------",
"---------------------;X           #&----------------------------",
"-----------------------%:o     @:*------------------------------",
"----------------------------------------------------------------",
"----------------------------------------------------------------",
"----------------------------------------------------------------",
"----------------------------------------------------------------",
"----------------------------------------------------------------",
"----------------------------------------------------------------",
"----------------------------------------------------------------",
"----------------------------------------------------------------",
"----------------------------------------------------------------",
"----------------------------------------------------------------",
"----------------------------------------------------------------",
"----------------------------------------------------------------",
"----------------------------------------------------------------",
"----------------------------------------------------------------",
"----------------------------------------------------------------",
"----------------------------------------------------------------",
"----------------------------------------------------------------",
"----------------------------------------------------------------"
};
