/* XPM */
static char *result[] = {
/* columns rows colors chars-per-pixel */
"64 64 162 2 ",
"   c #010009",
".  c #030511",
"X  c #060911",
"o  c #030119",
"O  c #060F18",
"+  c #130D1B",
"@  c #0C1718",
"#  c #14101D",
"$  c #1E151C",
"%  c #040529",
"&  c #080D29",
"*  c #1B0F22",
"=  c #0A1221",
"-  c #151722",
";  c #1D1222",
":  c #1D1A26",
">  c #14132A",
",  c #1F1C2A",
"<  c #1E1930",
"1  c #231E2B",
"2  c #201E35",
"3  c #2A1F31",
"4  c #222122",
"5  c #22242D",
"6  c #2D262C",
"7  c #24282E",
"8  c #362C2C",
"9  c #222136",
"0  c #2C2331",
"q  c #2E2A36",
"w  c #342636",
"e  c #362F36",
"r  c #362D3B",
"t  c #373136",
"y  c #37333F",
"u  c #383540",
"i  c #BE7E34",
"p  c #C47F34",
"a  c #C8882B",
"s  c #D18B2B",
"d  c #D3902B",
"f  c #C68334",
"g  c #CB8134",
"h  c #CF8834",
"j  c #C4803A",
"k  c #CD853A",
"l  c #D18B34",
"z  c #DB8E35",
"x  c #D98D3B",
"c  c #DD9335",
"v  c #E0972C",
"b  c #EC9B37",
"n  c #D9B12D",
"m  c #CFA535",
"M  c #D7AA35",
"N  c #D8AD35",
"B  c #D7A93B",
"V  c #DEAC3C",
"C  c #E6BA2D",
"Z  c #E4B535",
"A  c #E5B935",
"S  c #EFBD37",
"D  c #E0B13C",
"F  c #F0BE37",
"G  c #F0BC3D",
"H  c #E8C02D",
"J  c #E8C224",
"K  c #F2C52D",
"L  c #F3C437",
"P  c #FFCE39",
"I  c #DEAB41",
"U  c #982895",
"Y  c #9A2C99",
"T  c #983597",
"R  c #9E369D",
"E  c #9F399F",
"W  c #AC3395",
"Q  c #A73B93",
"!  c #AA3F96",
"~  c #A0379D",
"^  c #A0399E",
"/  c #AE3C9A",
"(  c #9F3CAD",
")  c #A23CA0",
"_  c #A93AA7",
"`  c #A03DAD",
"'  c #9E439E",
"]  c #A54796",
"[  c #AA469B",
"{  c #A7499E",
"}  c #AB4A9C",
"|  c #B1429C",
" . c #B3489F",
".. c #A444A4",
"X. c #AD43A0",
"o. c #A64CA6",
"O. c #A94CA7",
"+. c #A340AD",
"@. c #A94EA9",
"#. c #B147A1",
"$. c #BC43A5",
"%. c #B54BA1",
"&. c #B048AD",
"*. c #BD4DAA",
"=. c #AC55AB",
"-. c #AD58AD",
";. c #B653A5",
":. c #B855A5",
">. c #B859A7",
",. c #B95BA9",
"<. c #B351B1",
"1. c #D46E9E",
"2. c #C6709A",
"3. c #CD739F",
"4. c #D1769F",
"5. c #D8729E",
"6. c #D1789E",
"7. c #C04FAB",
"8. c #C154AC",
"9. c #CC53B5",
"0. c #CD70A7",
"q. c #D576A5",
"w. c #D77AA5",
"e. c #DA7BA6",
"r. c #D977AF",
"t. c #D77DAA",
"y. c #D472AD",
"u. c #E27DAE",
"i. c #E47BB8",
"p. c #DB809F",
"a. c #DD81A5",
"s. c #DA82AA",
"d. c #E580AE",
"f. c #E984AF",
"g. c #E985B0",
"h. c #F589B9",
"j. c #D5C4D2",
"k. c #D8CAD7",
"l. c #DCC6D8",
"z. c #DECCDB",
"x. c #DAD1D9",
"c. c #E0CCDD",
"v. c #E0D1DE",
"b. c #E4D9DF",
"n. c #E2D4E1",
"m. c #E5DBE3",
"M. c #EED7E9",
"N. c #EEDCE9",
"B. c #E2E7EA",
"V. c #E8E7E8",
"C. c #E2E8EA",
"Z. c #EAE8E8",
"A. c #F1E1EE",
"S. c #EBEAF2",
"D. c #F1ECF4",
"F. c #ECF2F4",
"G. c #F3F3F4",
"H. c #F4F4FA",
"J. c #F9F6FA",
"K. c #F7FEFF",
"L. c #FEFFFF",
"P. c None",
/* pixels */
"P.P.P.P.K.K.K.K.K.K.K.K.P.P.P.P.P.P.P.P.P.P.P.P.P.P.P.P.P.P.P.P.P.P.P.P.P.P.P.P.P.P.P.P.P.P.P.P.P.P.P.P.P.P.P.P.P.P.P.P.P.P.P.P.",
"P.P.P.P.K.K.K.K.K.K.K.K.P.P.P.P.P.P.P.P.P.P.P.P.P.P.P.P.P.P.P.P.P.P.P.P.P.P.P.P.P.P.P.P.P.P.P.P.P.P.P.P.P.P.P.P.P.P.P.P.P.P.P.P.",
"P.P.P.P.L.L.L.L.L.L.L.L.P.P.P.P.P.P.P.P.P.P.P.P.P.P.P.P.P.P.P.P.P.P.P.P.P.P.P.P.P.P.P.P.P.P.P.P.P.P.P.P.P.P.P.P.P.P.P.P.P.P.P.P.",
"P.P.P.P.F.F.F.F.F.F.F.F.P.P.P.P.P.P.P.P.P.P.P.P.P.P.P.P.P.P.P.P.P.P.P.P.P.P.P.P.P.P.P.P.P.P.P.P.P.P.P.P.P.P.P.P.P.P.P.P.P.P.P.P.",
"K.K.L.F.u 1 q q q q : u F.L.K.K.P.P.P.P.P.P.P.P.P.P.P.P.P.P.P.P.P.P.P.P.P.P.P.P.P.P.P.P.P.P.P.P.P.P.P.P.P.P.P.P.P.P.P.P.P.P.P.P.",
"K.K.L.F.:   + + + +   : F.L.K.K.P.P.P.P.P.P.P.P.P.P.P.P.P.P.P.P.P.P.P.P.P.P.P.P.P.P.P.P.P.P.P.P.P.P.P.P.P.P.P.P.P.P.P.P.P.P.P.P.",
"K.K.L.F.q + 1 1 > > o 9 L.L.L.L.P.P.P.P.P.P.P.P.P.P.P.P.P.P.P.P.P.P.P.P.P.P.P.P.P.P.P.P.P.P.P.P.P.P.P.P.P.P.P.P.P.P.P.P.P.P.P.P.",
"K.K.L.F.q + 1 1 6 6 $ t B.G.F.F.P.P.P.P.P.P.P.P.P.P.P.P.P.P.P.P.P.P.P.P.P.P.P.P.P.P.P.P.P.P.P.P.P.P.P.P.P.P.P.P.P.P.P.P.P.P.P.P.",
"K.K.L.F.q + > 6 m A A m t 2 1 u F.L.K.K.K.K.K.K.K.K.K.K.P.P.P.P.P.P.P.P.P.P.P.P.P.P.P.P.P.P.P.P.P.P.P.P.P.P.P.P.P.P.P.P.P.P.P.P.",
"K.K.L.F.q + > 6 A P P Z $ o   : F.L.K.K.K.K.K.K.K.K.K.K.P.P.P.P.P.P.P.P.P.P.P.P.P.P.P.P.P.P.P.P.P.P.P.P.P.P.P.P.P.P.P.P.P.P.P.P.",
"K.K.L.F.q + > 6 N L L N , % o 2 L.L.L.L.L.L.L.L.L.L.L.L.P.P.P.P.P.P.P.P.P.P.P.P.P.P.P.P.P.P.P.P.P.P.P.P.P.P.P.P.P.P.P.P.P.P.P.P.",
"K.K.L.F.q + > 6 M S S M 8 , $ t B.G.F.F.F.F.F.F.F.F.F.F.P.P.P.P.P.P.P.P.P.P.P.P.P.P.P.P.P.P.P.P.P.P.P.P.P.P.P.P.P.P.P.P.P.P.P.P.",
"K.K.L.F.q + > 6 f c l h M N A m t < q q q q q w q q 1 y F.L.K.K.P.P.P.P.P.P.P.P.P.P.P.P.P.P.P.P.P.P.P.P.P.P.P.P.P.P.P.P.P.P.P.P.",
"K.K.L.F.q + > 6 f z g h S L P Z $ o # + + + + + + +   : F.L.K.K.P.P.P.P.P.P.P.P.P.P.P.P.P.P.P.P.P.P.P.P.P.P.P.P.P.P.P.P.P.P.P.P.",
"K.K.L.F.:   o $ l b c c Z A L N , % > > - - - - - -   9 K.L.L.L.P.P.P.P.P.P.P.P.P.P.P.P.P.P.P.P.P.P.P.P.P.P.P.P.P.P.P.P.P.P.P.P.",
"K.K.L.F.y 1 9 e i l f f D Z S N 8 , 6 6 0 0 0 0 0 0 : t B.G.F.F.P.P.P.P.P.P.P.P.P.P.P.P.P.P.P.P.P.P.P.P.P.P.P.P.P.P.P.P.P.P.P.P.",
"P.P.P.P.F.F.G.B.e $ 1 8 f c l l M N n B 3.0.3.3.4.3.e.2.r 5 1 y F.L.K.K.P.P.P.P.P.P.P.P.P.P.P.P.P.P.P.P.P.P.P.P.P.P.P.P.P.P.P.P.",
"P.P.P.P.L.L.L.L.9 o & , p z g k F L K G d.u.d.d.d.d.h.e.; .   : F.L.K.K.P.P.P.P.P.P.P.P.P.P.P.P.P.P.P.P.P.P.P.P.P.P.P.P.P.P.P.P.",
"P.P.P.P.L.L.L.L.5 X @ 4 a v s d C H J A p.r.e.e.e.e.g.4.1 O   9 L.L.L.L.P.P.P.P.P.P.P.P.P.P.P.P.P.P.P.P.P.P.P.P.P.P.P.P.P.P.P.P.",
"P.P.P.P.F.F.G.B.r * < w p x k k V D Z I 6.y.w.w.q.q.u.3.w , ; r B.G.F.F.P.P.P.P.P.P.P.P.P.P.P.P.P.P.P.P.P.P.P.P.P.P.P.P.P.P.P.P.",
"K.K.L.F.u 1 5 r ] %.} } { { { { o.} { } %.%.%.%.%.%.%.;.3.4.e.2.r 5 : u F.L.K.K.P.P.P.P.P.P.P.P.P.P.P.P.P.P.P.P.P.P.P.P.P.P.P.P.",
"K.K.L.F.:   X * %.9.7.7.+.( +.+.( ` ( ` %. .#.%.X.%.X.%.u.g.h.e.; .   : F.L.K.K.P.P.P.P.P.P.P.P.P.P.P.P.P.P.P.P.P.P.P.P.P.P.P.P.",
"K.K.L.F.w + - 6 } 7.%. .~ E R R E ~ E ) %.%.%. ./ / / | q.e.d.3.0 - + q F.L.K.K.P.P.P.P.P.P.P.P.P.P.P.P.P.P.P.P.P.P.P.P.P.P.P.P.",
"K.K.L.F.q + - 3 } *.%.%.@.@.@.@.O.O.o.O.%.%.%.%.;.;.;.:.w.e.d.3.0 - + q F.L.K.K.P.P.P.P.P.P.P.P.P.P.P.P.P.P.P.P.P.P.P.P.P.P.P.P.",
"K.K.L.F.q + - 0 ' &.~ @.D.J.H.G.z.l.v.l.O.^ ^ @.D.J.H.D.t.5.u.3.0 - + q F.L.K.K.K.K.K.K.K.K.K.K.K.K.K.K.P.P.P.P.P.P.P.P.P.P.P.P.",
"K.K.L.F.q + : 6 ' O.R @.K.L.L.L.V.b.V.b...( R @.K.L.L.L.s.1.d.4.0 - + w F.L.K.K.K.K.K.K.K.K.K.K.K.K.K.K.P.P.P.P.P.P.P.P.P.P.P.P.",
"K.K.L.F.q + - 3 T _ U ..H.L.K.K.v.z.n.l...Y Y ..K.L.L.K.s.5.f.4.1 O   5 L.L.L.L.L.L.L.L.L.L.L.L.L.L.L.L.P.P.P.P.P.P.P.P.P.P.P.P.",
"K.K.L.F.q # - 0 o.<.) -.H.L.K.K.n.v.m.c.=...) -.D.J.J.D.t.1.u.3.w , : r B.G.F.F.F.F.F.F.F.F.F.F.F.F.F.F.P.P.P.P.P.P.P.P.P.P.P.P.",
"K.K.L.F.q + # q S.J.H.H.K.K.K.K.K.K.K.J.c.l.x.l.,. .:.:. .;.%.;.3.6.e.2.r 5 q q q q q q q q q q q q 1 y F.L.K.K.P.P.P.P.P.P.P.P.",
"K.K.L.F.q + + q K.L.L.L.K.K.K.K.K.K.K.K.m.b.Z.b. .W / |  . .X.%.u.f.h.e.; . + + + + + + + + + + + +   : F.L.K.K.P.P.P.P.P.P.P.P.",
"K.K.L.F.q + + q F.L.K.K.K.K.K.K.K.K.L.K.v.z.b.l.;.|  . .%.%. .%.w.a.f.3.; . + + # # # # $ - - : - -   9 L.L.L.L.P.P.P.P.P.P.P.P.",
"K.K.L.F.q + + w F.K.K.K.K.K.K.K.K.K.K.K.n.v.m.c.;./  .;.%.%.X.%.q.w.u.3.r 5 q q q 0 q q 0 0 3 3 0 0 : t B.G.F.F.P.P.P.P.P.P.P.P.",
"K.K.L.F.q + + q F.L.K.K.K.K.K.K.K.K.K.K.H.K.L.H.=.^ ....%.%.%.%.%.%.[ :.S.G.F.S.k.j.x.j.} [ [  .3.6.e.2.r 5 : u F.L.K.K.P.P.P.P.",
"K.K.L.F.q + + q F.L.K.K.K.K.K.K.K.K.K.K.K.K.L.H.@.E ....%.%.%.%.X.%.W ;.L.L.L.L.A.N.D.M.8.$.*.8.u.d.h.e.; .   : F.L.K.K.P.P.P.P.",
"K.K.L.F.:     1 L.L.L.L.L.L.L.L.L.K.K.K.K.K.L.H.@.R ....X.%. .%.| | W %.H.L.K.K.c.l.b.l. .W / | w.a.f.4., O . 5 L.L.L.L.P.P.P.P.",
"K.K.L.F.y : : u C.G.F.F.F.F.F.F.K.K.K.K.K.K.K.H.@.R ....%.%.%.%.;.;. .>.H.L.K.K.b.v.n.c.>. .;.:.q.e.u.3.w 1 ; r B.G.F.F.P.P.P.P.",
"P.P.P.P.F.F.G.C.u 1 0 q q q 1 y F.L.K.K.K.K.L.H.@.R ....%.%.| ;.l.b.l.c.K.K.K.K.K.K.K.K.c.l.n.l.;.| %.;.3.4.e.2.r 5 1 u F.L.K.K.",
"P.P.P.P.L.L.L.L.:   + + + +   : F.L.K.K.K.K.L.H.@.R .... .%.| ;.v.Z.b.m.K.K.K.K.K.L.L.K.m.n.V.n.%./ }  .u.f.h.e.:     : F.L.K.K.",
"P.P.P.P.K.K.L.F.:   + + 1 1 + q F.L.K.K.K.K.L.H...U ^ [ %.%.| ;.l.n.l.v.K.K.K.K.K.K.K.K.n.x.m.z.;.|  .%.q.e.d.3.0 - + q F.L.K.K.",
"P.P.P.P.K.K.L.F.u : q q 1 1 + q F.L.K.K.K.K.L.G.-.( o.@.%.%./ ;.z.m.c.b.K.L.K.K.K.K.K.K.n.c.m.z.;.| #.%.q.e.d.4.0 - + q F.L.K.K.",
"P.P.P.P.P.P.P.P.F.F.G.B.q + + q F.L.K.K.K.K.K.K.c.l.b.l.O.~ E @.H.L.K.H.K.K.K.K.K.K.L.K.v.z.m.c.;.| %.%.w.e.u.3.0 - + q F.L.K.K.",
"P.P.P.P.P.P.P.P.L.L.L.L.q + + q F.L.K.K.K.K.K.K.m.b.Z.v.@.~ R @.H.L.K.K.K.K.K.K.K.K.K.K.b.v.m.l.;.| X.%.w.e.d.4.0 - + q F.L.K.K.",
"P.P.P.P.P.P.P.P.K.K.L.F.q + + q F.L.K.K.K.K.L.K.v.c.b.k...Y U ..H.L.K.K.K.K.K.K.K.K.K.K.c.l.b.l.;.| %.%.e.e.f.4.0 - + q F.L.K.K.",
"P.P.P.P.P.P.P.P.K.K.L.F.q + + q F.L.K.K.K.K.K.K.n.v.m.z.=.....=.H.L.K.K.K.K.K.K.K.K.K.K.b.v.m.c.;.|  . .q.e.u.3.0 - + q F.L.K.K.",
"P.P.P.P.P.P.P.P.K.K.L.F.w + + q F.L.K.K.K.K.K.K.K.K.K.J.z.l.l.z.H.K.K.K.K.K.K.K.K.K.K.K.K.K.J.H.;./ %.%.%.%.8.} 6 - + q F.L.K.K.",
"P.P.P.P.P.P.P.P.K.K.L.F.q + + q F.L.K.K.K.K.K.K.K.K.L.K.m.b.n.B.K.L.K.K.K.K.K.K.K.K.K.K.K.K.L.K.:./ %.%.#.#.*.[ 0 - + q F.L.K.K.",
"P.P.P.P.P.P.P.P.K.K.L.F.q + + q F.L.K.K.L.L.L.L.K.K.K.K.A.A.N.A.L.L.L.L.K.K.K.K.L.L.L.L.K.K.L.H.:./  .%.7.7.9.%.* X   : F.L.K.K.",
"P.P.P.P.P.P.P.P.K.K.L.F.q + + q F.L.K.K.F.F.F.F.K.K.K.K.k.j.j.k.F.F.F.F.K.K.K.K.F.F.F.F.K.K.L.H.;./ %.%.}  .%.] r 5 1 u F.L.K.K.",
"P.P.P.P.P.P.P.P.K.K.L.F.q + + q F.L.L.F.y 1 1 y F.L.L.F.u : 0 0 q q 1 y F.L.L.F.y : 1 u F.L.L.H.:./ *.} w : * r C.H.F.F.P.P.P.P.",
"P.P.P.P.P.P.P.P.K.K.L.F.q + + q F.L.L.F.:     : F.L.L.F.1   * # + +   : F.L.L.F.:     : F.L.K.H.;./ 8.} 1 @   7 L.L.L.L.P.P.P.P.",
"P.P.P.P.P.P.P.P.K.K.L.F.q + + w F.L.L.F.q + + q F.L.L.F.q + 1 1 1 1 + q F.L.L.F.q + + q F.L.L.H.8.$.9.%.* X   : F.L.K.K.P.P.P.P.",
"P.P.P.P.P.P.P.P.K.K.L.F.q + + q F.L.L.F.q + + q F.L.L.F.q + 1 1 1 1 + q F.L.L.F.q + + q F.L.L.H.;.Q %.] r 5 1 u F.L.K.K.P.P.P.P.",
"P.P.P.P.P.P.P.P.K.K.L.F.q + + q F.L.L.F.q + + q F.L.L.F.q + 1 4 1 1 + q F.L.L.F.q + + q F.L.L.F.r * ; r B.G.F.F.P.P.P.P.P.P.P.P.",
"P.P.P.P.P.P.P.P.K.K.L.F.q + + q F.L.L.F.q + + q F.L.L.F.q + 1 1 1 1 + q F.L.L.F.w # + q F.L.L.F.5 X X 7 K.L.L.L.P.P.P.P.P.P.P.P.",
"P.P.P.P.P.P.P.P.K.K.L.F.q + + q L.L.L.K.w + + q L.L.L.L.w + 1 1 1 1 + q L.L.L.K.q + + q L.L.L.K.q + + q F.L.K.K.P.P.P.P.P.P.P.P.",
"P.P.P.P.P.P.P.P.K.K.L.F.q + # q B.G.G.C.q # + q B.G.G.B.q + 1 1 1 1 + q C.G.G.C.q # # 0 B.G.G.C.q + + q F.L.K.K.P.P.P.P.P.P.P.P.",
"P.P.P.P.P.P.P.P.K.K.L.F.q + 1 1 q q q q 1 1 1 1 q q q q 1 1 1 1 1 1 1 1 q q q q 1 1 1 1 q w q q 1 1 + q F.L.K.K.P.P.P.P.P.P.P.P.",
"P.P.P.P.P.P.P.P.K.K.L.F.q + 1 1 + + + + 1 1 1 1 + + + + 1 1 1 1 1 1 1 1 + + + + 1 1 1 1 # + + + 1 1 + q F.L.K.K.P.P.P.P.P.P.P.P.",
"P.P.P.P.P.P.P.P.K.K.L.F.:   + + + + + + + + + + + + # + + + + + + + + + + + + + + + + + + + + + + +   : F.L.K.K.P.P.P.P.P.P.P.P.",
"P.P.P.P.P.P.P.P.K.K.L.F.u : q w q q q q q q q q q q q q q w q q q q q q q q q q q q q q q q q q q q 1 u F.L.K.K.P.P.P.P.P.P.P.P.",
"P.P.P.P.P.P.P.P.P.P.P.P.F.F.F.F.F.F.F.F.F.F.F.F.F.F.F.F.F.F.F.F.F.F.F.F.F.F.F.F.F.F.F.F.F.F.F.F.F.F.F.F.P.P.P.P.P.P.P.P.P.P.P.P.",
"P.P.P.P.P.P.P.P.P.P.P.P.L.L.L.L.L.L.L.L.L.L.L.L.L.L.L.L.L.L.L.L.L.L.L.L.L.L.L.L.L.L.L.L.L.L.L.L.L.L.L.L.P.P.P.P.P.P.P.P.P.P.P.P.",
"P.P.P.P.P.P.P.P.P.P.P.P.K.K.K.K.K.K.K.K.K.K.K.K.K.K.K.K.K.K.K.K.K.K.K.K.K.K.K.K.K.K.K.K.K.K.K.K.K.K.K.K.P.P.P.P.P.P.P.P.P.P.P.P.",
"P.P.P.P.P.P.P.P.P.P.P.P.K.K.K.K.K.K.K.K.K.K.K.K.K.K.K.K.K.K.K.K.K.K.K.K.K.K.K.K.K.K.K.K.K.K.K.K.K.K.K.K.P.P.P.P.P.P.P.P.P.P.P.P."
};
