/* XPM */
static char *result[] = {
/* columns rows colors chars-per-pixel */
"64 64 44 1 ",
"  c #855526",
". c #885727",
"X c #895827",
"o c #875728",
"O c #885729",
"+ c #8C5B2A",
"@ c #905F2D",
"# c #8F602E",
"$ c #92612F",
"% c #956532",
"& c #986731",
"* c #976835",
"= c #9B6B34",
"- c #9D6E38",
"; c #9F703A",
": c #A06F37",
"> c #A06F38",
", c #A27136",
"< c #A3733B",
"1 c #A8773C",
"2 c #A7783E",
"3 c #AA7A3E",
"4 c #A57740",
"5 c #AD7E41",
"6 c #B27F41",
"7 c #AF8043",
"8 c #B38445",
"9 c #B98646",
"0 c #B78847",
"q c #B68748",
"w c #B78848",
"e c #BB8C4B",
"r c #BF904E",
"t c #BC8E50",
"y c #BE9051",
"u c #C08E4C",
"i c #C0914F",
"p c #C39451",
"a c #C79854",
"s c #C99A56",
"d c #CC9E58",
"f c #CFA059",
"g c #D2A35C",
"h c #D7A961",
/* pixels */
"apaapppiiieeueeeeeeeeeereeriiiiipppasssapppipppaaaaaaaappteeeepp",
"88qqq8q8888788887887887788qqqq888qqq0wq875555555888888888858q880",
"ewqqweeeeepeieerreeeeeeeeeeerriieeeueqqqq88q88qqeweeeeeputiputee",
"pppppepreeeeeeee80ppppppppieeeeeeiieeeewqqq88886888qeeeeepppapau",
"eyppeeeeqq85eeeq8wrereiiiiee83<<<338wipppeppeq86qeweeeee885qweeu",
"wqqqeeeeuiepeeqqq88q88533313335688837q88855385568585558q83<23553",
"eeeqeeepeeeeeeeeeeepe9q3588eepppiere83<<58qqe0e0q85688553888weq6",
"upppeeteeiipppippippiriipppiieeappeee88qeapapppippapapeee9epsapu",
"ee0090q0eeee9999iiassfsiipap09eeuppssdsppiaiiipiiiipaassssspiafa",
"$@+++@+++++@@+#&**===-*&&&**$$%++$$%&%%%%$&&$@$$$@$@$$$$*--&$$-=",
",<<<,<<<<<<<<<-.-,-,::::,,,,<<<<<<,:::::>,,:,<:<,,<<,,<-:::,<,:=",
"sssssssssssssgr$sdsssssssssssssssssssssssssssssssssssssssssssssa",
"ppiuiiiirrpeiaq$rpiiiippiiiirrrriiiiiiiiipippppipppppppppppppppi",
"80uppipipippisw$ippppreeriprpipriiiiippppiieeqq86555353535368388",
"qeeeqqqqqeewqe7$8eqqqqqeqepriirpiipieieeeeieq858ewqq90qqq88880q8",
"pppeeqeeqqweee8$qeeqeriperirrireeeeqqqqqqq888888eeeeeeeieiiiiupu",
"pppppppapeeeadw#papapiiiiiiiipr00w0wwww88888888q88785868588qqqeu",
"qeeeuieeeeewer8$epeeeriiiipppiippyrre8qww0q0qqqqqqw9eeeeeeewewe0",
"ee0085885588qe8$yi8553q0988q80888q08880eree99ew0ee0qweeeee868qwq",
"q8888888eerppfe%ssssspapiiiippaaasssdffssdsareaseerpppeeee588qe0",
"X+++$+$$%*****% &**&*****=**-*==***==*==*&%&$X##+$+$#++X.o++XXXX",
"2242<4424<<<<;<5;<;<<;;--;<-***%**=**&%%&--%*-<<$+4<;<;<<444224<",
"yrerreeeeeieyieppyiipaassddsappaiiaiapppassppsdh<-gssddapyipipae",
"ewqqq88885858555577389eeipiipiipe9eirrppprypppps-*siriyeqq88qqe8",
"eeippppaaaappappppppereeirrppyprppipririiipewees--dppeyppppppeue",
"<2335555555858887870q853355qweeeeeiiiiiiiipq333e-$qqee8888qeiq85",
"1<1<28833qq73535877qepyeeeeeeererriiiiiiiiipprea-$eqepterpyippat",
"eeee8qewepprpreeeeeepppapipppppppiiirirrrirrriis--gareteq8888785",
"aaaapprrrrpprrrrripeeeeerppprewq8eappeq0ere3378y:%e8558555555573",
"e0w9eeepprepprpyireepeeepperq38qeiw7rpeerriieers,$q888688qq88807",
"8757788wwq78eew88w878q8555213788qq558e3-<<257538&$9eweeeew8888w8",
"$%$%%++#+$%###%++$%+X+###+$%%%%%#%%%$#$+#%+XXX+++++$#%#+%%%%%**#",
"2258eeeeweeeew8qqq8888q55e7355225weeeeteeq8888q8888855555<222558",
"etpaaayepsaeeeeeeee0qqq37rq83337epeeppy85epypappppypipppeeeeq8qt",
"wew888888q8888855333333878wwwwe0883<75786qeeqqeeqeeqqqeqewwweqee",
"253335332<,<,<<<<<<1<<<<<578erreq722<8q8e0qqqqqqq888556878q885qw",
"ppppppprwq88q00qqqq0ew0eerryiiippa71<899eeueeeeee8w8555558eeeeue",
"88878q88etpueq0eessappppppipiiiriieeeq88qqwwe0e0weeeqqeeeeqqeww8",
"<,23338eeeee733555338ipppiiiiirrrrppppipppppipaapppeq558q8555568",
"58q858qeeq8qqeeeq38857wrerrpiipe8qwewririiiiiieeepippe855868qqtt",
"ssssappppaapaaaapppspeepiiiaaaaspiiapppiiiiipaiiaapuipieeeuee9uq",
"=**--,,<<-<<<<<4,-=*-,,=*&*&&&===-===*=:,--=**::-=**=*=*-=*&**&%",
"%%$%$%%%%%%%%*% %*%*%*%%&****==**&*&**%*&*****%%&%***&**%*****%%",
"ippeyyppaaappde%asaaasssassspipppaapaaassappassssaasssassaaaaspw",
"ppappppppipipa8%ipiipiiiiiiier90000weipppueeiiipppppppppppppppae",
"qqeqeeieeeerea8@epiutpppe0eiiiiipriiieeeeeepiiie0ww00e9wqqeeewee",
"<<33368qqqqqqq8$qeeqeeeq0ereiiiiepeweeeeeeeeiiieweee90qqqqeeq7qq",
"338eeq8qepeeepq$eiiepewwerrriiieww8qeweeeerpiiipueew838eeeeerpae",
"00eiirirreeeep8$0ireerrrrriiiiiiirrire0rrrrriiiruewwee9eeeeeeeie",
"00q8898q8q00ee8$000qq9ererrrrereerrriiiirrrrrerrppppiaaiiaiaieer",
"68weeieirrripa8%isiiiiiipiriieue0e98000088q90q88eeepiieerr0epre8",
"upasasssaaaaaaw+issaaasapirriueeeeiiaiaaiiiiapaaapaaaaiaaiiiaae7",
"%%$$$$$$$$$$%$$.$$$$$$$$++...+X+.+$$$$&$$#$$&&&&**&&$*&&&==*%$**",
"3133333333332338333333<333333333333,,11,3<,====,@.,=====&===-,,,",
"psariaiiiieipiiaiiiasfsfssssssssssaassssfae0qqqp>&ieuieeuuiiiiap",
"386335333688qqq033359978eairiiiiiiiiaiiiiiiiiiif<*dpieu096383388",
"33333<35880888888eee335889eiriiriireweweeriippif-=sieqei06337887",
"8858q8857570w888qeeewerrwqippipiiare0q0eipprreea-=sripipp00eripe",
"rreeeq0q90wweq0ewqqwwq88q0eqwe0q90wwweweewre887e=*arreeeiiiiipay",
"piie5333313737qe88qq0q887qeqee0ee9eeq8w733rpw08e=&reireq00088ee8",
"e83335788werrreeerpeeeteriieyeyypppyepipyiirappf;=sreq3<<11<<,<<",
"qq00eeerippieriapaassaaapaasaaaapaaaapiiyaaaapag,-gapee0q8qq0ere",
"87375533322<<<333557weeeeeeeeeeeeweeeeq88werweep;&i0wee0qqq887q5",
"      . . .oXo       oXoooXoOOOOXoXoooXX+oooooooo. .   .. o     "
};
